<svg width="312" height="31" viewBox="0 0 312 31" fill="none" xmlns="http://www.w3.org/2000/svg">
<path d="M4.36812 30.864V26.544H0.000117302V4.36796H4.36812V-3.8147e-05H17.9041V4.36796H22.3201V9.16796H17.4241V4.84796H4.84812V13.056H13.5841V17.808H4.84812V26.064H17.4241V21.696H22.3201V26.544H17.9041V30.864H4.36812ZM36.3811 30.864V26.544H32.0131V17.808H27.6451V8.68796H32.4931V17.328H36.8131V26.064H40.7491V17.328H45.0691V8.68796H49.9651V17.808H45.5491V26.544H41.2291V30.864H36.3811ZM58.2275 30.864V26.544H53.8595V13.056H58.2275V8.68796H71.7635V13.056H76.1795V17.808H71.2835V13.488H58.7075V17.328H67.4435V22.176H58.7075V26.064H71.2835V21.648H76.1795V26.496H71.7635V30.864H58.2275ZM81.9845 30.864V8.68796H99.8885V13.056H104.304V30.864H99.4085V13.488H86.8325V30.864H81.9845ZM116.876 30.864V26.544H112.556V13.488H108.188V8.68796H112.556V-3.8147e-05H117.356V8.68796H130.508V13.488H117.356V26.064H130.028V21.696H134.876V26.544H130.508V30.864H116.876ZM150.281 30.864V-3.8147e-05H163.865V4.36796H168.185V8.68796H172.601V22.176H168.185V26.544H163.865V30.864H150.281ZM155.129 26.064H163.385V21.696H167.705V9.16796H163.385V4.84796H155.129V26.064ZM182.774 30.864V26.544H178.406V13.056H182.774V8.68796H196.31V13.056H200.726V17.808H195.83V13.488H183.254V17.328H191.99V22.176H183.254V26.064H195.83V21.648H200.726V26.496H196.31V30.864H182.774ZM215.219 30.864V26.544H210.899V13.488H206.531V8.68796H210.899V-3.8147e-05H215.699V8.68796H228.851V13.488H215.699V26.064H228.371V21.696H233.219V26.544H228.851V30.864H215.219ZM241.931 30.864V26.544H237.563V13.056H241.931V8.68796H255.467V13.056H259.883V26.064H264.251V30.864H259.403V26.544H255.467V30.864H241.931ZM242.411 26.064H254.987V13.488H242.411V26.064ZM268.594 30.864V8.68796H273.442V30.864H268.594ZM268.594 4.84796V-3.8147e-05H273.442V4.84796H268.594ZM279.234 30.864V-3.8147e-05H284.082V30.864H279.234ZM288.938 30.864V26.064H306.362V22.176H293.306V17.808H288.938V13.056H293.306V8.68796H311.258V13.488H293.786V17.328H306.842V21.696H311.258V26.544H306.842V30.864H288.938Z" fill="white"/>
</svg>
