<svg width="303" height="40" viewBox="0 0 303 40" fill="none" xmlns="http://www.w3.org/2000/svg">
<path d="M0.000117302 30.864V4.36796H4.36812V-3.8147e-05H17.9041V4.36796H22.3201V17.808H17.9041V22.176H15.7921V26.064H20.1121V30.864H15.3121V26.544H10.8961V22.176H4.84812V30.864H0.000117302ZM4.84812 17.328H17.4241V4.84796H4.84812V17.328ZM32.4931 30.864V26.544H28.1251V13.056H32.4931V8.68796H46.0291V13.056H50.4451V17.808H45.5491V13.488H32.9731V17.328H41.7091V22.176H32.9731V26.064H45.5491V21.648H50.4451V26.496H46.0291V30.864H32.4931ZM60.6181 39.552V35.232H56.2501V30.432H61.0981V34.752H73.7221V26.544H60.6181V22.176H56.2501V13.056H60.6181V8.68796H74.2021V13.056H78.5701V35.232H74.2021V39.552H60.6181ZM61.0981 21.696H73.7221V13.488H61.0981V21.696ZM84.3751 30.864V8.68796H89.2231V30.864H84.3751ZM84.3751 4.84796V-3.8147e-05H89.2231V4.84796H84.3751ZM95.0157 30.864V26.064H112.44V22.176H99.3837V17.808H95.0157V13.056H99.3837V8.68796H117.336V13.488H99.8637V17.328H112.92V21.696H117.336V26.544H112.92V30.864H95.0157ZM131.829 30.864V26.544H127.509V13.488H123.141V8.68796H127.509V-3.8147e-05H132.309V8.68796H145.461V13.488H132.309V26.064H144.981V21.696H149.829V26.544H145.461V30.864H131.829ZM155.625 30.864V13.056H159.993V8.68796H173.529V13.056H177.945V17.808H173.049V13.488H160.473V30.864H155.625ZM186.665 30.864V26.544H182.297V13.056H186.665V8.68796H200.201V13.056H204.617V26.064H208.985V30.864H204.137V26.544H200.201V30.864H186.665ZM187.145 26.064H199.721V13.488H187.145V26.064ZM218.172 30.864V26.544H213.852V13.488H209.484V8.68796H213.852V-3.8147e-05H218.652V8.68796H231.804V13.488H218.652V26.064H231.324V21.696H236.172V26.544H231.804V30.864H218.172ZM241.969 30.864V8.68796H246.817V30.864H241.969ZM241.969 4.84796V-3.8147e-05H246.817V4.84796H241.969ZM256.04 30.864V26.544H251.672V13.056H256.04V8.68796H269.576V13.056H273.992V26.544H269.576V30.864H256.04ZM256.52 26.064H269.096V13.488H256.52V26.064ZM279.797 30.864V8.68796H297.701V13.056H302.117V30.864H297.221V13.488H284.645V30.864H279.797Z" fill="white"/>
</svg>
