<svg width="580" height="34" viewBox="0 0 580 34" fill="none" xmlns="http://www.w3.org/2000/svg">
<mask id="path-1-outside-1_492_33" maskUnits="userSpaceOnUse" x="-0.927979" y="-0.376007" width="581" height="34" fill="black">
<rect fill="white" x="-0.927979" y="-0.376007" width="581" height="34"/>
<path d="M1.00002 32.152V5.12799H5.22402V0.999992H19.816V5.12799H24.088V19.816H19.816V23.944H17.752V25.624H21.928V32.152H15.88V28.072H11.56V23.944H7.09602V32.152H1.00002ZM7.09602 17.368H17.944V7.57599H7.09602V17.368ZM34.1459 32.152V28.072H29.9219V5.12799H34.1459V0.999992H48.7379V5.12799H53.0099V11.656H46.8659V7.57599H36.0179V13.336H44.5139V19.816H36.0179V25.624H46.8659V21.496H53.0099V28.072H48.7379V32.152H34.1459ZM63.0678 32.152V28.072H58.8438V5.12799H63.0678V0.999992H77.6598V5.12799H81.9318V15.736H75.7878V7.57599H64.9398V25.624H75.7878V23.944H71.5638V19.816H67.2918V13.336H73.4358V17.368H81.9318V28.072H77.6598V32.152H63.0678ZM87.7656 32.152V25.624H91.9896V7.57599H87.7656V0.999992H102.358V7.57599H98.0856V25.624H102.358V32.152H87.7656ZM112.427 32.152V28.072H108.203V21.496H114.299V25.624H125.147V19.816H112.427V15.736H108.203V5.12799H112.427V0.999992H127.019V5.12799H131.291V11.656H125.147V7.57599H114.299V13.336H127.019V17.368H131.291V28.072H127.019V32.152H112.427ZM144.636 32.152V7.57599H142.284V11.656H136.188V5.12799H140.412V0.999992H155.004V5.12799H159.276V11.656H153.132V7.57599H150.78V32.152H144.636ZM163.188 32.152V5.12799H167.412V0.999992H182.004V5.12799H186.276V19.816H182.004V23.944H179.94V25.624H184.116V32.152H178.068V28.072H173.748V23.944H169.284V32.152H163.188ZM169.284 17.368H180.132V7.57599H169.284V17.368ZM192.109 32.152V9.20799H196.333V5.12799H200.557V0.999992H206.701V5.12799H210.925V9.20799H215.197V32.152H209.053V23.944H198.205V32.152H192.109ZM198.205 17.368H209.053V11.656H204.829V7.57599H202.429V11.656H198.205V17.368ZM226.62 32.152V7.57599H224.268V11.656H218.172V5.12799H222.396V0.999992H236.988V5.12799H241.26V11.656H235.116V7.57599H232.764V32.152H226.62ZM247.094 32.152V25.624H251.318V7.57599H247.094V0.999992H261.686V7.57599H257.414V25.624H261.686V32.152H247.094ZM271.755 32.152V28.072H267.531V5.12799H271.755V0.999992H286.347V5.12799H290.619V28.072H286.347V32.152H271.755ZM273.627 25.624H284.475V7.57599H273.627V25.624ZM296.453 32.152V0.999992H302.549V5.12799H306.773V9.20799H311.045V21.496H313.397V0.999992H319.541V32.152H313.397V28.072H309.173V23.944H304.901V11.656H302.549V32.152H296.453ZM329.599 32.152V28.072H325.375V21.496H331.471V25.624H342.319V19.816H329.599V15.736H325.375V5.12799H329.599V0.999992H344.191V5.12799H348.463V11.656H342.319V7.57599H331.471V13.336H344.191V17.368H348.463V28.072H344.191V32.152H329.599ZM368.13 32.152V28.072H363.906V5.12799H368.13V0.999992H382.722V5.12799H386.994V28.072H382.722V32.152H368.13ZM370.002 25.624H380.85V7.57599H370.002V25.624ZM392.828 32.152V5.12799H397.052V0.999992H411.644V5.12799H415.916V19.816H411.644V23.944H398.924V32.152H392.828ZM398.924 17.368H409.772V7.57599H398.924V17.368ZM425.974 32.152V28.072H421.75V5.12799H425.974V0.999992H440.566V5.12799H444.838V11.656H438.694V7.57599H427.846V13.336H436.342V19.816H427.846V25.624H438.694V21.496H444.838V28.072H440.566V32.152H425.974ZM450.672 32.152V0.999992H456.768V5.12799H460.992V9.20799H465.264V21.496H467.616V0.999992H473.76V32.152H467.616V28.072H463.392V23.944H459.12V11.656H456.768V32.152H450.672ZM489.203 32.152V0.999992H495.299V5.12799H499.523V9.20799H503.795V21.496H506.147V0.999992H512.291V32.152H506.147V28.072H501.923V23.944H497.651V11.656H495.299V32.152H489.203ZM522.349 32.152V28.072H518.125V5.12799H522.349V0.999992H536.941V5.12799H541.213V28.072H536.941V32.152H522.349ZM524.221 25.624H535.069V7.57599H524.221V25.624ZM551.271 32.152V28.072H547.047V0.999992H553.143V25.624H555.495V17.368H559.767V5.12799H565.863V17.368H570.135V25.624H572.535V0.999992H578.583V28.072H574.407V32.152H568.263V28.072H563.991V19.816H561.639V28.072H557.367V32.152H551.271Z"/>
</mask>
<path d="M1.00002 32.152V5.12799H5.22402V0.999992H19.816V5.12799H24.088V19.816H19.816V23.944H17.752V25.624H21.928V32.152H15.88V28.072H11.56V23.944H7.09602V32.152H1.00002ZM7.09602 17.368H17.944V7.57599H7.09602V17.368ZM34.1459 32.152V28.072H29.9219V5.12799H34.1459V0.999992H48.7379V5.12799H53.0099V11.656H46.8659V7.57599H36.0179V13.336H44.5139V19.816H36.0179V25.624H46.8659V21.496H53.0099V28.072H48.7379V32.152H34.1459ZM63.0678 32.152V28.072H58.8438V5.12799H63.0678V0.999992H77.6598V5.12799H81.9318V15.736H75.7878V7.57599H64.9398V25.624H75.7878V23.944H71.5638V19.816H67.2918V13.336H73.4358V17.368H81.9318V28.072H77.6598V32.152H63.0678ZM87.7656 32.152V25.624H91.9896V7.57599H87.7656V0.999992H102.358V7.57599H98.0856V25.624H102.358V32.152H87.7656ZM112.427 32.152V28.072H108.203V21.496H114.299V25.624H125.147V19.816H112.427V15.736H108.203V5.12799H112.427V0.999992H127.019V5.12799H131.291V11.656H125.147V7.57599H114.299V13.336H127.019V17.368H131.291V28.072H127.019V32.152H112.427ZM144.636 32.152V7.57599H142.284V11.656H136.188V5.12799H140.412V0.999992H155.004V5.12799H159.276V11.656H153.132V7.57599H150.78V32.152H144.636ZM163.188 32.152V5.12799H167.412V0.999992H182.004V5.12799H186.276V19.816H182.004V23.944H179.94V25.624H184.116V32.152H178.068V28.072H173.748V23.944H169.284V32.152H163.188ZM169.284 17.368H180.132V7.57599H169.284V17.368ZM192.109 32.152V9.20799H196.333V5.12799H200.557V0.999992H206.701V5.12799H210.925V9.20799H215.197V32.152H209.053V23.944H198.205V32.152H192.109ZM198.205 17.368H209.053V11.656H204.829V7.57599H202.429V11.656H198.205V17.368ZM226.62 32.152V7.57599H224.268V11.656H218.172V5.12799H222.396V0.999992H236.988V5.12799H241.26V11.656H235.116V7.57599H232.764V32.152H226.62ZM247.094 32.152V25.624H251.318V7.57599H247.094V0.999992H261.686V7.57599H257.414V25.624H261.686V32.152H247.094ZM271.755 32.152V28.072H267.531V5.12799H271.755V0.999992H286.347V5.12799H290.619V28.072H286.347V32.152H271.755ZM273.627 25.624H284.475V7.57599H273.627V25.624ZM296.453 32.152V0.999992H302.549V5.12799H306.773V9.20799H311.045V21.496H313.397V0.999992H319.541V32.152H313.397V28.072H309.173V23.944H304.901V11.656H302.549V32.152H296.453ZM329.599 32.152V28.072H325.375V21.496H331.471V25.624H342.319V19.816H329.599V15.736H325.375V5.12799H329.599V0.999992H344.191V5.12799H348.463V11.656H342.319V7.57599H331.471V13.336H344.191V17.368H348.463V28.072H344.191V32.152H329.599ZM368.13 32.152V28.072H363.906V5.12799H368.13V0.999992H382.722V5.12799H386.994V28.072H382.722V32.152H368.13ZM370.002 25.624H380.85V7.57599H370.002V25.624ZM392.828 32.152V5.12799H397.052V0.999992H411.644V5.12799H415.916V19.816H411.644V23.944H398.924V32.152H392.828ZM398.924 17.368H409.772V7.57599H398.924V17.368ZM425.974 32.152V28.072H421.75V5.12799H425.974V0.999992H440.566V5.12799H444.838V11.656H438.694V7.57599H427.846V13.336H436.342V19.816H427.846V25.624H438.694V21.496H444.838V28.072H440.566V32.152H425.974ZM450.672 32.152V0.999992H456.768V5.12799H460.992V9.20799H465.264V21.496H467.616V0.999992H473.76V32.152H467.616V28.072H463.392V23.944H459.12V11.656H456.768V32.152H450.672ZM489.203 32.152V0.999992H495.299V5.12799H499.523V9.20799H503.795V21.496H506.147V0.999992H512.291V32.152H506.147V28.072H501.923V23.944H497.651V11.656H495.299V32.152H489.203ZM522.349 32.152V28.072H518.125V5.12799H522.349V0.999992H536.941V5.12799H541.213V28.072H536.941V32.152H522.349ZM524.221 25.624H535.069V7.57599H524.221V25.624ZM551.271 32.152V28.072H547.047V0.999992H553.143V25.624H555.495V17.368H559.767V5.12799H565.863V17.368H570.135V25.624H572.535V0.999992H578.583V28.072H574.407V32.152H568.263V28.072H563.991V19.816H561.639V28.072H557.367V32.152H551.271Z" fill="#103CD9"/>
<path d="M1.00002 32.152H2.16961e-05V33.152H1.00002V32.152ZM1.00002 5.12799V4.12799H2.16961e-05V5.12799H1.00002ZM5.22402 5.12799V6.12799H6.22402V5.12799H5.22402ZM5.22402 0.999992V-7.62939e-06H4.22402V0.999992H5.22402ZM19.816 0.999992H20.816V-7.62939e-06H19.816V0.999992ZM19.816 5.12799H18.816V6.12799H19.816V5.12799ZM24.088 5.12799H25.088V4.12799H24.088V5.12799ZM24.088 19.816V20.816H25.088V19.816H24.088ZM19.816 19.816V18.816H18.816V19.816H19.816ZM19.816 23.944V24.944H20.816V23.944H19.816ZM17.752 23.944V22.944H16.752V23.944H17.752ZM17.752 25.624H16.752V26.624H17.752V25.624ZM21.928 25.624H22.928V24.624H21.928V25.624ZM21.928 32.152V33.152H22.928V32.152H21.928ZM15.88 32.152H14.88V33.152H15.88V32.152ZM15.88 28.072H16.88V27.072H15.88V28.072ZM11.56 28.072H10.56V29.072H11.56V28.072ZM11.56 23.944H12.56V22.944H11.56V23.944ZM7.09602 23.944V22.944H6.09602V23.944H7.09602ZM7.09602 32.152V33.152H8.09602V32.152H7.09602ZM7.09602 17.368H6.09602V18.368H7.09602V17.368ZM17.944 17.368V18.368H18.944V17.368H17.944ZM17.944 7.57599H18.944V6.57599H17.944V7.57599ZM7.09602 7.57599V6.57599H6.09602V7.57599H7.09602ZM1.00002 32.152H2.00002V5.12799H1.00002H2.16961e-05V32.152H1.00002ZM1.00002 5.12799V6.12799H5.22402V5.12799V4.12799H1.00002V5.12799ZM5.22402 5.12799H6.22402V0.999992H5.22402H4.22402V5.12799H5.22402ZM5.22402 0.999992V1.99999H19.816V0.999992V-7.62939e-06H5.22402V0.999992ZM19.816 0.999992H18.816V5.12799H19.816H20.816V0.999992H19.816ZM19.816 5.12799V6.12799H24.088V5.12799V4.12799H19.816V5.12799ZM24.088 5.12799H23.088V19.816H24.088H25.088V5.12799H24.088ZM24.088 19.816V18.816H19.816V19.816V20.816H24.088V19.816ZM19.816 19.816H18.816V23.944H19.816H20.816V19.816H19.816ZM19.816 23.944V22.944H17.752V23.944V24.944H19.816V23.944ZM17.752 23.944H16.752V25.624H17.752H18.752V23.944H17.752ZM17.752 25.624V26.624H21.928V25.624V24.624H17.752V25.624ZM21.928 25.624H20.928V32.152H21.928H22.928V25.624H21.928ZM21.928 32.152V31.152H15.88V32.152V33.152H21.928V32.152ZM15.88 32.152H16.88V28.072H15.88H14.88V32.152H15.88ZM15.88 28.072V27.072H11.56V28.072V29.072H15.88V28.072ZM11.56 28.072H12.56V23.944H11.56H10.56V28.072H11.56ZM11.56 23.944V22.944H7.09602V23.944V24.944H11.56V23.944ZM7.09602 23.944H6.09602V32.152H7.09602H8.09602V23.944H7.09602ZM7.09602 32.152V31.152H1.00002V32.152V33.152H7.09602V32.152ZM7.09602 17.368V18.368H17.944V17.368V16.368H7.09602V17.368ZM17.944 17.368H18.944V7.57599H17.944H16.944V17.368H17.944ZM17.944 7.57599V6.57599H7.09602V7.57599V8.57599H17.944V7.57599ZM7.09602 7.57599H6.09602V17.368H7.09602H8.09602V7.57599H7.09602ZM34.1459 32.152H33.1459V33.152H34.1459V32.152ZM34.1459 28.072H35.1459V27.072H34.1459V28.072ZM29.9219 28.072H28.9219V29.072H29.9219V28.072ZM29.9219 5.12799V4.12799H28.9219V5.12799H29.9219ZM34.1459 5.12799V6.12799H35.1459V5.12799H34.1459ZM34.1459 0.999992V-7.62939e-06H33.1459V0.999992H34.1459ZM48.7379 0.999992H49.7379V-7.62939e-06H48.7379V0.999992ZM48.7379 5.12799H47.7379V6.12799H48.7379V5.12799ZM53.0099 5.12799H54.0099V4.12799H53.0099V5.12799ZM53.0099 11.656V12.656H54.0099V11.656H53.0099ZM46.8659 11.656H45.8659V12.656H46.8659V11.656ZM46.8659 7.57599H47.8659V6.57599H46.8659V7.57599ZM36.0179 7.57599V6.57599H35.0179V7.57599H36.0179ZM36.0179 13.336H35.0179V14.336H36.0179V13.336ZM44.5139 13.336H45.5139V12.336H44.5139V13.336ZM44.5139 19.816V20.816H45.5139V19.816H44.5139ZM36.0179 19.816V18.816H35.0179V19.816H36.0179ZM36.0179 25.624H35.0179V26.624H36.0179V25.624ZM46.8659 25.624V26.624H47.8659V25.624H46.8659ZM46.8659 21.496V20.496H45.8659V21.496H46.8659ZM53.0099 21.496H54.0099V20.496H53.0099V21.496ZM53.0099 28.072V29.072H54.0099V28.072H53.0099ZM48.7379 28.072V27.072H47.7379V28.072H48.7379ZM48.7379 32.152V33.152H49.7379V32.152H48.7379ZM34.1459 32.152H35.1459V28.072H34.1459H33.1459V32.152H34.1459ZM34.1459 28.072V27.072H29.9219V28.072V29.072H34.1459V28.072ZM29.9219 28.072H30.9219V5.12799H29.9219H28.9219V28.072H29.9219ZM29.9219 5.12799V6.12799H34.1459V5.12799V4.12799H29.9219V5.12799ZM34.1459 5.12799H35.1459V0.999992H34.1459H33.1459V5.12799H34.1459ZM34.1459 0.999992V1.99999H48.7379V0.999992V-7.62939e-06H34.1459V0.999992ZM48.7379 0.999992H47.7379V5.12799H48.7379H49.7379V0.999992H48.7379ZM48.7379 5.12799V6.12799H53.0099V5.12799V4.12799H48.7379V5.12799ZM53.0099 5.12799H52.0099V11.656H53.0099H54.0099V5.12799H53.0099ZM53.0099 11.656V10.656H46.8659V11.656V12.656H53.0099V11.656ZM46.8659 11.656H47.8659V7.57599H46.8659H45.8659V11.656H46.8659ZM46.8659 7.57599V6.57599H36.0179V7.57599V8.57599H46.8659V7.57599ZM36.0179 7.57599H35.0179V13.336H36.0179H37.0179V7.57599H36.0179ZM36.0179 13.336V14.336H44.5139V13.336V12.336H36.0179V13.336ZM44.5139 13.336H43.5139V19.816H44.5139H45.5139V13.336H44.5139ZM44.5139 19.816V18.816H36.0179V19.816V20.816H44.5139V19.816ZM36.0179 19.816H35.0179V25.624H36.0179H37.0179V19.816H36.0179ZM36.0179 25.624V26.624H46.8659V25.624V24.624H36.0179V25.624ZM46.8659 25.624H47.8659V21.496H46.8659H45.8659V25.624H46.8659ZM46.8659 21.496V22.496H53.0099V21.496V20.496H46.8659V21.496ZM53.0099 21.496H52.0099V28.072H53.0099H54.0099V21.496H53.0099ZM53.0099 28.072V27.072H48.7379V28.072V29.072H53.0099V28.072ZM48.7379 28.072H47.7379V32.152H48.7379H49.7379V28.072H48.7379ZM48.7379 32.152V31.152H34.1459V32.152V33.152H48.7379V32.152ZM63.0678 32.152H62.0678V33.152H63.0678V32.152ZM63.0678 28.072H64.0678V27.072H63.0678V28.072ZM58.8438 28.072H57.8438V29.072H58.8438V28.072ZM58.8438 5.12799V4.12799H57.8438V5.12799H58.8438ZM63.0678 5.12799V6.12799H64.0678V5.12799H63.0678ZM63.0678 0.999992V-7.62939e-06H62.0678V0.999992H63.0678ZM77.6598 0.999992H78.6598V-7.62939e-06H77.6598V0.999992ZM77.6598 5.12799H76.6598V6.12799H77.6598V5.12799ZM81.9318 5.12799H82.9318V4.12799H81.9318V5.12799ZM81.9318 15.736V16.736H82.9318V15.736H81.9318ZM75.7878 15.736H74.7878V16.736H75.7878V15.736ZM75.7878 7.57599H76.7878V6.57599H75.7878V7.57599ZM64.9398 7.57599V6.57599H63.9398V7.57599H64.9398ZM64.9398 25.624H63.9398V26.624H64.9398V25.624ZM75.7878 25.624V26.624H76.7878V25.624H75.7878ZM75.7878 23.944H76.7878V22.944H75.7878V23.944ZM71.5638 23.944H70.5638V24.944H71.5638V23.944ZM71.5638 19.816H72.5638V18.816H71.5638V19.816ZM67.2918 19.816H66.2918V20.816H67.2918V19.816ZM67.2918 13.336V12.336H66.2918V13.336H67.2918ZM73.4358 13.336H74.4358V12.336H73.4358V13.336ZM73.4358 17.368H72.4358V18.368H73.4358V17.368ZM81.9318 17.368H82.9318V16.368H81.9318V17.368ZM81.9318 28.072V29.072H82.9318V28.072H81.9318ZM77.6598 28.072V27.072H76.6598V28.072H77.6598ZM77.6598 32.152V33.152H78.6598V32.152H77.6598ZM63.0678 32.152H64.0678V28.072H63.0678H62.0678V32.152H63.0678ZM63.0678 28.072V27.072H58.8438V28.072V29.072H63.0678V28.072ZM58.8438 28.072H59.8438V5.12799H58.8438H57.8438V28.072H58.8438ZM58.8438 5.12799V6.12799H63.0678V5.12799V4.12799H58.8438V5.12799ZM63.0678 5.12799H64.0678V0.999992H63.0678H62.0678V5.12799H63.0678ZM63.0678 0.999992V1.99999H77.6598V0.999992V-7.62939e-06H63.0678V0.999992ZM77.6598 0.999992H76.6598V5.12799H77.6598H78.6598V0.999992H77.6598ZM77.6598 5.12799V6.12799H81.9318V5.12799V4.12799H77.6598V5.12799ZM81.9318 5.12799H80.9318V15.736H81.9318H82.9318V5.12799H81.9318ZM81.9318 15.736V14.736H75.7878V15.736V16.736H81.9318V15.736ZM75.7878 15.736H76.7878V7.57599H75.7878H74.7878V15.736H75.7878ZM75.7878 7.57599V6.57599H64.9398V7.57599V8.57599H75.7878V7.57599ZM64.9398 7.57599H63.9398V25.624H64.9398H65.9398V7.57599H64.9398ZM64.9398 25.624V26.624H75.7878V25.624V24.624H64.9398V25.624ZM75.7878 25.624H76.7878V23.944H75.7878H74.7878V25.624H75.7878ZM75.7878 23.944V22.944H71.5638V23.944V24.944H75.7878V23.944ZM71.5638 23.944H72.5638V19.816H71.5638H70.5638V23.944H71.5638ZM71.5638 19.816V18.816H67.2918V19.816V20.816H71.5638V19.816ZM67.2918 19.816H68.2918V13.336H67.2918H66.2918V19.816H67.2918ZM67.2918 13.336V14.336H73.4358V13.336V12.336H67.2918V13.336ZM73.4358 13.336H72.4358V17.368H73.4358H74.4358V13.336H73.4358ZM73.4358 17.368V18.368H81.9318V17.368V16.368H73.4358V17.368ZM81.9318 17.368H80.9318V28.072H81.9318H82.9318V17.368H81.9318ZM81.9318 28.072V27.072H77.6598V28.072V29.072H81.9318V28.072ZM77.6598 28.072H76.6598V32.152H77.6598H78.6598V28.072H77.6598ZM77.6598 32.152V31.152H63.0678V32.152V33.152H77.6598V32.152ZM87.7656 32.152H86.7656V33.152H87.7656V32.152ZM87.7656 25.624V24.624H86.7656V25.624H87.7656ZM91.9896 25.624V26.624H92.9896V25.624H91.9896ZM91.9896 7.57599H92.9896V6.57599H91.9896V7.57599ZM87.7656 7.57599H86.7656V8.57599H87.7656V7.57599ZM87.7656 0.999992V-7.62939e-06H86.7656V0.999992H87.7656ZM102.358 0.999992H103.358V-7.62939e-06H102.358V0.999992ZM102.358 7.57599V8.57599H103.358V7.57599H102.358ZM98.0856 7.57599V6.57599H97.0856V7.57599H98.0856ZM98.0856 25.624H97.0856V26.624H98.0856V25.624ZM102.358 25.624H103.358V24.624H102.358V25.624ZM102.358 32.152V33.152H103.358V32.152H102.358ZM87.7656 32.152H88.7656V25.624H87.7656H86.7656V32.152H87.7656ZM87.7656 25.624V26.624H91.9896V25.624V24.624H87.7656V25.624ZM91.9896 25.624H92.9896V7.57599H91.9896H90.9896V25.624H91.9896ZM91.9896 7.57599V6.57599H87.7656V7.57599V8.57599H91.9896V7.57599ZM87.7656 7.57599H88.7656V0.999992H87.7656H86.7656V7.57599H87.7656ZM87.7656 0.999992V1.99999H102.358V0.999992V-7.62939e-06H87.7656V0.999992ZM102.358 0.999992H101.358V7.57599H102.358H103.358V0.999992H102.358ZM102.358 7.57599V6.57599H98.0856V7.57599V8.57599H102.358V7.57599ZM98.0856 7.57599H97.0856V25.624H98.0856H99.0856V7.57599H98.0856ZM98.0856 25.624V26.624H102.358V25.624V24.624H98.0856V25.624ZM102.358 25.624H101.358V32.152H102.358H103.358V25.624H102.358ZM102.358 32.152V31.152H87.7656V32.152V33.152H102.358V32.152ZM112.427 32.152H111.427V33.152H112.427V32.152ZM112.427 28.072H113.427V27.072H112.427V28.072ZM108.203 28.072H107.203V29.072H108.203V28.072ZM108.203 21.496V20.496H107.203V21.496H108.203ZM114.299 21.496H115.299V20.496H114.299V21.496ZM114.299 25.624H113.299V26.624H114.299V25.624ZM125.147 25.624V26.624H126.147V25.624H125.147ZM125.147 19.816H126.147V18.816H125.147V19.816ZM112.427 19.816H111.427V20.816H112.427V19.816ZM112.427 15.736H113.427V14.736H112.427V15.736ZM108.203 15.736H107.203V16.736H108.203V15.736ZM108.203 5.12799V4.12799H107.203V5.12799H108.203ZM112.427 5.12799V6.12799H113.427V5.12799H112.427ZM112.427 0.999992V-7.62939e-06H111.427V0.999992H112.427ZM127.019 0.999992H128.019V-7.62939e-06H127.019V0.999992ZM127.019 5.12799H126.019V6.12799H127.019V5.12799ZM131.291 5.12799H132.291V4.12799H131.291V5.12799ZM131.291 11.656V12.656H132.291V11.656H131.291ZM125.147 11.656H124.147V12.656H125.147V11.656ZM125.147 7.57599H126.147V6.57599H125.147V7.57599ZM114.299 7.57599V6.57599H113.299V7.57599H114.299ZM114.299 13.336H113.299V14.336H114.299V13.336ZM127.019 13.336H128.019V12.336H127.019V13.336ZM127.019 17.368H126.019V18.368H127.019V17.368ZM131.291 17.368H132.291V16.368H131.291V17.368ZM131.291 28.072V29.072H132.291V28.072H131.291ZM127.019 28.072V27.072H126.019V28.072H127.019ZM127.019 32.152V33.152H128.019V32.152H127.019ZM112.427 32.152H113.427V28.072H112.427H111.427V32.152H112.427ZM112.427 28.072V27.072H108.203V28.072V29.072H112.427V28.072ZM108.203 28.072H109.203V21.496H108.203H107.203V28.072H108.203ZM108.203 21.496V22.496H114.299V21.496V20.496H108.203V21.496ZM114.299 21.496H113.299V25.624H114.299H115.299V21.496H114.299ZM114.299 25.624V26.624H125.147V25.624V24.624H114.299V25.624ZM125.147 25.624H126.147V19.816H125.147H124.147V25.624H125.147ZM125.147 19.816V18.816H112.427V19.816V20.816H125.147V19.816ZM112.427 19.816H113.427V15.736H112.427H111.427V19.816H112.427ZM112.427 15.736V14.736H108.203V15.736V16.736H112.427V15.736ZM108.203 15.736H109.203V5.12799H108.203H107.203V15.736H108.203ZM108.203 5.12799V6.12799H112.427V5.12799V4.12799H108.203V5.12799ZM112.427 5.12799H113.427V0.999992H112.427H111.427V5.12799H112.427ZM112.427 0.999992V1.99999H127.019V0.999992V-7.62939e-06H112.427V0.999992ZM127.019 0.999992H126.019V5.12799H127.019H128.019V0.999992H127.019ZM127.019 5.12799V6.12799H131.291V5.12799V4.12799H127.019V5.12799ZM131.291 5.12799H130.291V11.656H131.291H132.291V5.12799H131.291ZM131.291 11.656V10.656H125.147V11.656V12.656H131.291V11.656ZM125.147 11.656H126.147V7.57599H125.147H124.147V11.656H125.147ZM125.147 7.57599V6.57599H114.299V7.57599V8.57599H125.147V7.57599ZM114.299 7.57599H113.299V13.336H114.299H115.299V7.57599H114.299ZM114.299 13.336V14.336H127.019V13.336V12.336H114.299V13.336ZM127.019 13.336H126.019V17.368H127.019H128.019V13.336H127.019ZM127.019 17.368V18.368H131.291V17.368V16.368H127.019V17.368ZM131.291 17.368H130.291V28.072H131.291H132.291V17.368H131.291ZM131.291 28.072V27.072H127.019V28.072V29.072H131.291V28.072ZM127.019 28.072H126.019V32.152H127.019H128.019V28.072H127.019ZM127.019 32.152V31.152H112.427V32.152V33.152H127.019V32.152ZM144.636 32.152H143.636V33.152H144.636V32.152ZM144.636 7.57599H145.636V6.57599H144.636V7.57599ZM142.284 7.57599V6.57599H141.284V7.57599H142.284ZM142.284 11.656V12.656H143.284V11.656H142.284ZM136.188 11.656H135.188V12.656H136.188V11.656ZM136.188 5.12799V4.12799H135.188V5.12799H136.188ZM140.412 5.12799V6.12799H141.412V5.12799H140.412ZM140.412 0.999992V-7.62939e-06H139.412V0.999992H140.412ZM155.004 0.999992H156.004V-7.62939e-06H155.004V0.999992ZM155.004 5.12799H154.004V6.12799H155.004V5.12799ZM159.276 5.12799H160.276V4.12799H159.276V5.12799ZM159.276 11.656V12.656H160.276V11.656H159.276ZM153.132 11.656H152.132V12.656H153.132V11.656ZM153.132 7.57599H154.132V6.57599H153.132V7.57599ZM150.78 7.57599V6.57599H149.78V7.57599H150.78ZM150.78 32.152V33.152H151.78V32.152H150.78ZM144.636 32.152H145.636V7.57599H144.636H143.636V32.152H144.636ZM144.636 7.57599V6.57599H142.284V7.57599V8.57599H144.636V7.57599ZM142.284 7.57599H141.284V11.656H142.284H143.284V7.57599H142.284ZM142.284 11.656V10.656H136.188V11.656V12.656H142.284V11.656ZM136.188 11.656H137.188V5.12799H136.188H135.188V11.656H136.188ZM136.188 5.12799V6.12799H140.412V5.12799V4.12799H136.188V5.12799ZM140.412 5.12799H141.412V0.999992H140.412H139.412V5.12799H140.412ZM140.412 0.999992V1.99999H155.004V0.999992V-7.62939e-06H140.412V0.999992ZM155.004 0.999992H154.004V5.12799H155.004H156.004V0.999992H155.004ZM155.004 5.12799V6.12799H159.276V5.12799V4.12799H155.004V5.12799ZM159.276 5.12799H158.276V11.656H159.276H160.276V5.12799H159.276ZM159.276 11.656V10.656H153.132V11.656V12.656H159.276V11.656ZM153.132 11.656H154.132V7.57599H153.132H152.132V11.656H153.132ZM153.132 7.57599V6.57599H150.78V7.57599V8.57599H153.132V7.57599ZM150.78 7.57599H149.78V32.152H150.78H151.78V7.57599H150.78ZM150.78 32.152V31.152H144.636V32.152V33.152H150.78V32.152ZM163.188 32.152H162.188V33.152H163.188V32.152ZM163.188 5.12799V4.12799H162.188V5.12799H163.188ZM167.412 5.12799V6.12799H168.412V5.12799H167.412ZM167.412 0.999992V-7.62939e-06H166.412V0.999992H167.412ZM182.004 0.999992H183.004V-7.62939e-06H182.004V0.999992ZM182.004 5.12799H181.004V6.12799H182.004V5.12799ZM186.276 5.12799H187.276V4.12799H186.276V5.12799ZM186.276 19.816V20.816H187.276V19.816H186.276ZM182.004 19.816V18.816H181.004V19.816H182.004ZM182.004 23.944V24.944H183.004V23.944H182.004ZM179.94 23.944V22.944H178.94V23.944H179.94ZM179.94 25.624H178.94V26.624H179.94V25.624ZM184.116 25.624H185.116V24.624H184.116V25.624ZM184.116 32.152V33.152H185.116V32.152H184.116ZM178.068 32.152H177.068V33.152H178.068V32.152ZM178.068 28.072H179.068V27.072H178.068V28.072ZM173.748 28.072H172.748V29.072H173.748V28.072ZM173.748 23.944H174.748V22.944H173.748V23.944ZM169.284 23.944V22.944H168.284V23.944H169.284ZM169.284 32.152V33.152H170.284V32.152H169.284ZM169.284 17.368H168.284V18.368H169.284V17.368ZM180.132 17.368V18.368H181.132V17.368H180.132ZM180.132 7.57599H181.132V6.57599H180.132V7.57599ZM169.284 7.57599V6.57599H168.284V7.57599H169.284ZM163.188 32.152H164.188V5.12799H163.188H162.188V32.152H163.188ZM163.188 5.12799V6.12799H167.412V5.12799V4.12799H163.188V5.12799ZM167.412 5.12799H168.412V0.999992H167.412H166.412V5.12799H167.412ZM167.412 0.999992V1.99999H182.004V0.999992V-7.62939e-06H167.412V0.999992ZM182.004 0.999992H181.004V5.12799H182.004H183.004V0.999992H182.004ZM182.004 5.12799V6.12799H186.276V5.12799V4.12799H182.004V5.12799ZM186.276 5.12799H185.276V19.816H186.276H187.276V5.12799H186.276ZM186.276 19.816V18.816H182.004V19.816V20.816H186.276V19.816ZM182.004 19.816H181.004V23.944H182.004H183.004V19.816H182.004ZM182.004 23.944V22.944H179.94V23.944V24.944H182.004V23.944ZM179.94 23.944H178.94V25.624H179.94H180.94V23.944H179.94ZM179.94 25.624V26.624H184.116V25.624V24.624H179.94V25.624ZM184.116 25.624H183.116V32.152H184.116H185.116V25.624H184.116ZM184.116 32.152V31.152H178.068V32.152V33.152H184.116V32.152ZM178.068 32.152H179.068V28.072H178.068H177.068V32.152H178.068ZM178.068 28.072V27.072H173.748V28.072V29.072H178.068V28.072ZM173.748 28.072H174.748V23.944H173.748H172.748V28.072H173.748ZM173.748 23.944V22.944H169.284V23.944V24.944H173.748V23.944ZM169.284 23.944H168.284V32.152H169.284H170.284V23.944H169.284ZM169.284 32.152V31.152H163.188V32.152V33.152H169.284V32.152ZM169.284 17.368V18.368H180.132V17.368V16.368H169.284V17.368ZM180.132 17.368H181.132V7.57599H180.132H179.132V17.368H180.132ZM180.132 7.57599V6.57599H169.284V7.57599V8.57599H180.132V7.57599ZM169.284 7.57599H168.284V17.368H169.284H170.284V7.57599H169.284ZM192.109 32.152H191.109V33.152H192.109V32.152ZM192.109 9.20799V8.20799H191.109V9.20799H192.109ZM196.333 9.20799V10.208H197.333V9.20799H196.333ZM196.333 5.12799V4.12799H195.333V5.12799H196.333ZM200.557 5.12799V6.12799H201.557V5.12799H200.557ZM200.557 0.999992V-7.62939e-06H199.557V0.999992H200.557ZM206.701 0.999992H207.701V-7.62939e-06H206.701V0.999992ZM206.701 5.12799H205.701V6.12799H206.701V5.12799ZM210.925 5.12799H211.925V4.12799H210.925V5.12799ZM210.925 9.20799H209.925V10.208H210.925V9.20799ZM215.197 9.20799H216.197V8.20799H215.197V9.20799ZM215.197 32.152V33.152H216.197V32.152H215.197ZM209.053 32.152H208.053V33.152H209.053V32.152ZM209.053 23.944H210.053V22.944H209.053V23.944ZM198.205 23.944V22.944H197.205V23.944H198.205ZM198.205 32.152V33.152H199.205V32.152H198.205ZM198.205 17.368H197.205V18.368H198.205V17.368ZM209.053 17.368V18.368H210.053V17.368H209.053ZM209.053 11.656H210.053V10.656H209.053V11.656ZM204.829 11.656H203.829V12.656H204.829V11.656ZM204.829 7.57599H205.829V6.57599H204.829V7.57599ZM202.429 7.57599V6.57599H201.429V7.57599H202.429ZM202.429 11.656V12.656H203.429V11.656H202.429ZM198.205 11.656V10.656H197.205V11.656H198.205ZM192.109 32.152H193.109V9.20799H192.109H191.109V32.152H192.109ZM192.109 9.20799V10.208H196.333V9.20799V8.20799H192.109V9.20799ZM196.333 9.20799H197.333V5.12799H196.333H195.333V9.20799H196.333ZM196.333 5.12799V6.12799H200.557V5.12799V4.12799H196.333V5.12799ZM200.557 5.12799H201.557V0.999992H200.557H199.557V5.12799H200.557ZM200.557 0.999992V1.99999H206.701V0.999992V-7.62939e-06H200.557V0.999992ZM206.701 0.999992H205.701V5.12799H206.701H207.701V0.999992H206.701ZM206.701 5.12799V6.12799H210.925V5.12799V4.12799H206.701V5.12799ZM210.925 5.12799H209.925V9.20799H210.925H211.925V5.12799H210.925ZM210.925 9.20799V10.208H215.197V9.20799V8.20799H210.925V9.20799ZM215.197 9.20799H214.197V32.152H215.197H216.197V9.20799H215.197ZM215.197 32.152V31.152H209.053V32.152V33.152H215.197V32.152ZM209.053 32.152H210.053V23.944H209.053H208.053V32.152H209.053ZM209.053 23.944V22.944H198.205V23.944V24.944H209.053V23.944ZM198.205 23.944H197.205V32.152H198.205H199.205V23.944H198.205ZM198.205 32.152V31.152H192.109V32.152V33.152H198.205V32.152ZM198.205 17.368V18.368H209.053V17.368V16.368H198.205V17.368ZM209.053 17.368H210.053V11.656H209.053H208.053V17.368H209.053ZM209.053 11.656V10.656H204.829V11.656V12.656H209.053V11.656ZM204.829 11.656H205.829V7.57599H204.829H203.829V11.656H204.829ZM204.829 7.57599V6.57599H202.429V7.57599V8.57599H204.829V7.57599ZM202.429 7.57599H201.429V11.656H202.429H203.429V7.57599H202.429ZM202.429 11.656V10.656H198.205V11.656V12.656H202.429V11.656ZM198.205 11.656H197.205V17.368H198.205H199.205V11.656H198.205ZM226.62 32.152H225.62V33.152H226.62V32.152ZM226.62 7.57599H227.62V6.57599H226.62V7.57599ZM224.268 7.57599V6.57599H223.268V7.57599H224.268ZM224.268 11.656V12.656H225.268V11.656H224.268ZM218.172 11.656H217.172V12.656H218.172V11.656ZM218.172 5.12799V4.12799H217.172V5.12799H218.172ZM222.396 5.12799V6.12799H223.396V5.12799H222.396ZM222.396 0.999992V-7.62939e-06H221.396V0.999992H222.396ZM236.988 0.999992H237.988V-7.62939e-06H236.988V0.999992ZM236.988 5.12799H235.988V6.12799H236.988V5.12799ZM241.26 5.12799H242.26V4.12799H241.26V5.12799ZM241.26 11.656V12.656H242.26V11.656H241.26ZM235.116 11.656H234.116V12.656H235.116V11.656ZM235.116 7.57599H236.116V6.57599H235.116V7.57599ZM232.764 7.57599V6.57599H231.764V7.57599H232.764ZM232.764 32.152V33.152H233.764V32.152H232.764ZM226.62 32.152H227.62V7.57599H226.62H225.62V32.152H226.62ZM226.62 7.57599V6.57599H224.268V7.57599V8.57599H226.62V7.57599ZM224.268 7.57599H223.268V11.656H224.268H225.268V7.57599H224.268ZM224.268 11.656V10.656H218.172V11.656V12.656H224.268V11.656ZM218.172 11.656H219.172V5.12799H218.172H217.172V11.656H218.172ZM218.172 5.12799V6.12799H222.396V5.12799V4.12799H218.172V5.12799ZM222.396 5.12799H223.396V0.999992H222.396H221.396V5.12799H222.396ZM222.396 0.999992V1.99999H236.988V0.999992V-7.62939e-06H222.396V0.999992ZM236.988 0.999992H235.988V5.12799H236.988H237.988V0.999992H236.988ZM236.988 5.12799V6.12799H241.26V5.12799V4.12799H236.988V5.12799ZM241.26 5.12799H240.26V11.656H241.26H242.26V5.12799H241.26ZM241.26 11.656V10.656H235.116V11.656V12.656H241.26V11.656ZM235.116 11.656H236.116V7.57599H235.116H234.116V11.656H235.116ZM235.116 7.57599V6.57599H232.764V7.57599V8.57599H235.116V7.57599ZM232.764 7.57599H231.764V32.152H232.764H233.764V7.57599H232.764ZM232.764 32.152V31.152H226.62V32.152V33.152H232.764V32.152ZM247.094 32.152H246.094V33.152H247.094V32.152ZM247.094 25.624V24.624H246.094V25.624H247.094ZM251.318 25.624V26.624H252.318V25.624H251.318ZM251.318 7.57599H252.318V6.57599H251.318V7.57599ZM247.094 7.57599H246.094V8.57599H247.094V7.57599ZM247.094 0.999992V-7.62939e-06H246.094V0.999992H247.094ZM261.686 0.999992H262.686V-7.62939e-06H261.686V0.999992ZM261.686 7.57599V8.57599H262.686V7.57599H261.686ZM257.414 7.57599V6.57599H256.414V7.57599H257.414ZM257.414 25.624H256.414V26.624H257.414V25.624ZM261.686 25.624H262.686V24.624H261.686V25.624ZM261.686 32.152V33.152H262.686V32.152H261.686ZM247.094 32.152H248.094V25.624H247.094H246.094V32.152H247.094ZM247.094 25.624V26.624H251.318V25.624V24.624H247.094V25.624ZM251.318 25.624H252.318V7.57599H251.318H250.318V25.624H251.318ZM251.318 7.57599V6.57599H247.094V7.57599V8.57599H251.318V7.57599ZM247.094 7.57599H248.094V0.999992H247.094H246.094V7.57599H247.094ZM247.094 0.999992V1.99999H261.686V0.999992V-7.62939e-06H247.094V0.999992ZM261.686 0.999992H260.686V7.57599H261.686H262.686V0.999992H261.686ZM261.686 7.57599V6.57599H257.414V7.57599V8.57599H261.686V7.57599ZM257.414 7.57599H256.414V25.624H257.414H258.414V7.57599H257.414ZM257.414 25.624V26.624H261.686V25.624V24.624H257.414V25.624ZM261.686 25.624H260.686V32.152H261.686H262.686V25.624H261.686ZM261.686 32.152V31.152H247.094V32.152V33.152H261.686V32.152ZM271.755 32.152H270.755V33.152H271.755V32.152ZM271.755 28.072H272.755V27.072H271.755V28.072ZM267.531 28.072H266.531V29.072H267.531V28.072ZM267.531 5.12799V4.12799H266.531V5.12799H267.531ZM271.755 5.12799V6.12799H272.755V5.12799H271.755ZM271.755 0.999992V-7.62939e-06H270.755V0.999992H271.755ZM286.347 0.999992H287.347V-7.62939e-06H286.347V0.999992ZM286.347 5.12799H285.347V6.12799H286.347V5.12799ZM290.619 5.12799H291.619V4.12799H290.619V5.12799ZM290.619 28.072V29.072H291.619V28.072H290.619ZM286.347 28.072V27.072H285.347V28.072H286.347ZM286.347 32.152V33.152H287.347V32.152H286.347ZM273.627 25.624H272.627V26.624H273.627V25.624ZM284.475 25.624V26.624H285.475V25.624H284.475ZM284.475 7.57599H285.475V6.57599H284.475V7.57599ZM273.627 7.57599V6.57599H272.627V7.57599H273.627ZM271.755 32.152H272.755V28.072H271.755H270.755V32.152H271.755ZM271.755 28.072V27.072H267.531V28.072V29.072H271.755V28.072ZM267.531 28.072H268.531V5.12799H267.531H266.531V28.072H267.531ZM267.531 5.12799V6.12799H271.755V5.12799V4.12799H267.531V5.12799ZM271.755 5.12799H272.755V0.999992H271.755H270.755V5.12799H271.755ZM271.755 0.999992V1.99999H286.347V0.999992V-7.62939e-06H271.755V0.999992ZM286.347 0.999992H285.347V5.12799H286.347H287.347V0.999992H286.347ZM286.347 5.12799V6.12799H290.619V5.12799V4.12799H286.347V5.12799ZM290.619 5.12799H289.619V28.072H290.619H291.619V5.12799H290.619ZM290.619 28.072V27.072H286.347V28.072V29.072H290.619V28.072ZM286.347 28.072H285.347V32.152H286.347H287.347V28.072H286.347ZM286.347 32.152V31.152H271.755V32.152V33.152H286.347V32.152ZM273.627 25.624V26.624H284.475V25.624V24.624H273.627V25.624ZM284.475 25.624H285.475V7.57599H284.475H283.475V25.624H284.475ZM284.475 7.57599V6.57599H273.627V7.57599V8.57599H284.475V7.57599ZM273.627 7.57599H272.627V25.624H273.627H274.627V7.57599H273.627ZM296.453 32.152H295.453V33.152H296.453V32.152ZM296.453 0.999992V-7.62939e-06H295.453V0.999992H296.453ZM302.549 0.999992H303.549V-7.62939e-06H302.549V0.999992ZM302.549 5.12799H301.549V6.12799H302.549V5.12799ZM306.773 5.12799H307.773V4.12799H306.773V5.12799ZM306.773 9.20799H305.773V10.208H306.773V9.20799ZM311.045 9.20799H312.045V8.20799H311.045V9.20799ZM311.045 21.496H310.045V22.496H311.045V21.496ZM313.397 21.496V22.496H314.397V21.496H313.397ZM313.397 0.999992V-7.62939e-06H312.397V0.999992H313.397ZM319.541 0.999992H320.541V-7.62939e-06H319.541V0.999992ZM319.541 32.152V33.152H320.541V32.152H319.541ZM313.397 32.152H312.397V33.152H313.397V32.152ZM313.397 28.072H314.397V27.072H313.397V28.072ZM309.173 28.072H308.173V29.072H309.173V28.072ZM309.173 23.944H310.173V22.944H309.173V23.944ZM304.901 23.944H303.901V24.944H304.901V23.944ZM304.901 11.656H305.901V10.656H304.901V11.656ZM302.549 11.656V10.656H301.549V11.656H302.549ZM302.549 32.152V33.152H303.549V32.152H302.549ZM296.453 32.152H297.453V0.999992H296.453H295.453V32.152H296.453ZM296.453 0.999992V1.99999H302.549V0.999992V-7.62939e-06H296.453V0.999992ZM302.549 0.999992H301.549V5.12799H302.549H303.549V0.999992H302.549ZM302.549 5.12799V6.12799H306.773V5.12799V4.12799H302.549V5.12799ZM306.773 5.12799H305.773V9.20799H306.773H307.773V5.12799H306.773ZM306.773 9.20799V10.208H311.045V9.20799V8.20799H306.773V9.20799ZM311.045 9.20799H310.045V21.496H311.045H312.045V9.20799H311.045ZM311.045 21.496V22.496H313.397V21.496V20.496H311.045V21.496ZM313.397 21.496H314.397V0.999992H313.397H312.397V21.496H313.397ZM313.397 0.999992V1.99999H319.541V0.999992V-7.62939e-06H313.397V0.999992ZM319.541 0.999992H318.541V32.152H319.541H320.541V0.999992H319.541ZM319.541 32.152V31.152H313.397V32.152V33.152H319.541V32.152ZM313.397 32.152H314.397V28.072H313.397H312.397V32.152H313.397ZM313.397 28.072V27.072H309.173V28.072V29.072H313.397V28.072ZM309.173 28.072H310.173V23.944H309.173H308.173V28.072H309.173ZM309.173 23.944V22.944H304.901V23.944V24.944H309.173V23.944ZM304.901 23.944H305.901V11.656H304.901H303.901V23.944H304.901ZM304.901 11.656V10.656H302.549V11.656V12.656H304.901V11.656ZM302.549 11.656H301.549V32.152H302.549H303.549V11.656H302.549ZM302.549 32.152V31.152H296.453V32.152V33.152H302.549V32.152ZM329.599 32.152H328.599V33.152H329.599V32.152ZM329.599 28.072H330.599V27.072H329.599V28.072ZM325.375 28.072H324.375V29.072H325.375V28.072ZM325.375 21.496V20.496H324.375V21.496H325.375ZM331.471 21.496H332.471V20.496H331.471V21.496ZM331.471 25.624H330.471V26.624H331.471V25.624ZM342.319 25.624V26.624H343.319V25.624H342.319ZM342.319 19.816H343.319V18.816H342.319V19.816ZM329.599 19.816H328.599V20.816H329.599V19.816ZM329.599 15.736H330.599V14.736H329.599V15.736ZM325.375 15.736H324.375V16.736H325.375V15.736ZM325.375 5.12799V4.12799H324.375V5.12799H325.375ZM329.599 5.12799V6.12799H330.599V5.12799H329.599ZM329.599 0.999992V-7.62939e-06H328.599V0.999992H329.599ZM344.191 0.999992H345.191V-7.62939e-06H344.191V0.999992ZM344.191 5.12799H343.191V6.12799H344.191V5.12799ZM348.463 5.12799H349.463V4.12799H348.463V5.12799ZM348.463 11.656V12.656H349.463V11.656H348.463ZM342.319 11.656H341.319V12.656H342.319V11.656ZM342.319 7.57599H343.319V6.57599H342.319V7.57599ZM331.471 7.57599V6.57599H330.471V7.57599H331.471ZM331.471 13.336H330.471V14.336H331.471V13.336ZM344.191 13.336H345.191V12.336H344.191V13.336ZM344.191 17.368H343.191V18.368H344.191V17.368ZM348.463 17.368H349.463V16.368H348.463V17.368ZM348.463 28.072V29.072H349.463V28.072H348.463ZM344.191 28.072V27.072H343.191V28.072H344.191ZM344.191 32.152V33.152H345.191V32.152H344.191ZM329.599 32.152H330.599V28.072H329.599H328.599V32.152H329.599ZM329.599 28.072V27.072H325.375V28.072V29.072H329.599V28.072ZM325.375 28.072H326.375V21.496H325.375H324.375V28.072H325.375ZM325.375 21.496V22.496H331.471V21.496V20.496H325.375V21.496ZM331.471 21.496H330.471V25.624H331.471H332.471V21.496H331.471ZM331.471 25.624V26.624H342.319V25.624V24.624H331.471V25.624ZM342.319 25.624H343.319V19.816H342.319H341.319V25.624H342.319ZM342.319 19.816V18.816H329.599V19.816V20.816H342.319V19.816ZM329.599 19.816H330.599V15.736H329.599H328.599V19.816H329.599ZM329.599 15.736V14.736H325.375V15.736V16.736H329.599V15.736ZM325.375 15.736H326.375V5.12799H325.375H324.375V15.736H325.375ZM325.375 5.12799V6.12799H329.599V5.12799V4.12799H325.375V5.12799ZM329.599 5.12799H330.599V0.999992H329.599H328.599V5.12799H329.599ZM329.599 0.999992V1.99999H344.191V0.999992V-7.62939e-06H329.599V0.999992ZM344.191 0.999992H343.191V5.12799H344.191H345.191V0.999992H344.191ZM344.191 5.12799V6.12799H348.463V5.12799V4.12799H344.191V5.12799ZM348.463 5.12799H347.463V11.656H348.463H349.463V5.12799H348.463ZM348.463 11.656V10.656H342.319V11.656V12.656H348.463V11.656ZM342.319 11.656H343.319V7.57599H342.319H341.319V11.656H342.319ZM342.319 7.57599V6.57599H331.471V7.57599V8.57599H342.319V7.57599ZM331.471 7.57599H330.471V13.336H331.471H332.471V7.57599H331.471ZM331.471 13.336V14.336H344.191V13.336V12.336H331.471V13.336ZM344.191 13.336H343.191V17.368H344.191H345.191V13.336H344.191ZM344.191 17.368V18.368H348.463V17.368V16.368H344.191V17.368ZM348.463 17.368H347.463V28.072H348.463H349.463V17.368H348.463ZM348.463 28.072V27.072H344.191V28.072V29.072H348.463V28.072ZM344.191 28.072H343.191V32.152H344.191H345.191V28.072H344.191ZM344.191 32.152V31.152H329.599V32.152V33.152H344.191V32.152ZM368.13 32.152H367.13V33.152H368.13V32.152ZM368.13 28.072H369.13V27.072H368.13V28.072ZM363.906 28.072H362.906V29.072H363.906V28.072ZM363.906 5.12799V4.12799H362.906V5.12799H363.906ZM368.13 5.12799V6.12799H369.13V5.12799H368.13ZM368.13 0.999992V-7.62939e-06H367.13V0.999992H368.13ZM382.722 0.999992H383.722V-7.62939e-06H382.722V0.999992ZM382.722 5.12799H381.722V6.12799H382.722V5.12799ZM386.994 5.12799H387.994V4.12799H386.994V5.12799ZM386.994 28.072V29.072H387.994V28.072H386.994ZM382.722 28.072V27.072H381.722V28.072H382.722ZM382.722 32.152V33.152H383.722V32.152H382.722ZM370.002 25.624H369.002V26.624H370.002V25.624ZM380.85 25.624V26.624H381.85V25.624H380.85ZM380.85 7.57599H381.85V6.57599H380.85V7.57599ZM370.002 7.57599V6.57599H369.002V7.57599H370.002ZM368.13 32.152H369.13V28.072H368.13H367.13V32.152H368.13ZM368.13 28.072V27.072H363.906V28.072V29.072H368.13V28.072ZM363.906 28.072H364.906V5.12799H363.906H362.906V28.072H363.906ZM363.906 5.12799V6.12799H368.13V5.12799V4.12799H363.906V5.12799ZM368.13 5.12799H369.13V0.999992H368.13H367.13V5.12799H368.13ZM368.13 0.999992V1.99999H382.722V0.999992V-7.62939e-06H368.13V0.999992ZM382.722 0.999992H381.722V5.12799H382.722H383.722V0.999992H382.722ZM382.722 5.12799V6.12799H386.994V5.12799V4.12799H382.722V5.12799ZM386.994 5.12799H385.994V28.072H386.994H387.994V5.12799H386.994ZM386.994 28.072V27.072H382.722V28.072V29.072H386.994V28.072ZM382.722 28.072H381.722V32.152H382.722H383.722V28.072H382.722ZM382.722 32.152V31.152H368.13V32.152V33.152H382.722V32.152ZM370.002 25.624V26.624H380.85V25.624V24.624H370.002V25.624ZM380.85 25.624H381.85V7.57599H380.85H379.85V25.624H380.85ZM380.85 7.57599V6.57599H370.002V7.57599V8.57599H380.85V7.57599ZM370.002 7.57599H369.002V25.624H370.002H371.002V7.57599H370.002ZM392.828 32.152H391.828V33.152H392.828V32.152ZM392.828 5.12799V4.12799H391.828V5.12799H392.828ZM397.052 5.12799V6.12799H398.052V5.12799H397.052ZM397.052 0.999992V-7.62939e-06H396.052V0.999992H397.052ZM411.644 0.999992H412.644V-7.62939e-06H411.644V0.999992ZM411.644 5.12799H410.644V6.12799H411.644V5.12799ZM415.916 5.12799H416.916V4.12799H415.916V5.12799ZM415.916 19.816V20.816H416.916V19.816H415.916ZM411.644 19.816V18.816H410.644V19.816H411.644ZM411.644 23.944V24.944H412.644V23.944H411.644ZM398.924 23.944V22.944H397.924V23.944H398.924ZM398.924 32.152V33.152H399.924V32.152H398.924ZM398.924 17.368H397.924V18.368H398.924V17.368ZM409.772 17.368V18.368H410.772V17.368H409.772ZM409.772 7.57599H410.772V6.57599H409.772V7.57599ZM398.924 7.57599V6.57599H397.924V7.57599H398.924ZM392.828 32.152H393.828V5.12799H392.828H391.828V32.152H392.828ZM392.828 5.12799V6.12799H397.052V5.12799V4.12799H392.828V5.12799ZM397.052 5.12799H398.052V0.999992H397.052H396.052V5.12799H397.052ZM397.052 0.999992V1.99999H411.644V0.999992V-7.62939e-06H397.052V0.999992ZM411.644 0.999992H410.644V5.12799H411.644H412.644V0.999992H411.644ZM411.644 5.12799V6.12799H415.916V5.12799V4.12799H411.644V5.12799ZM415.916 5.12799H414.916V19.816H415.916H416.916V5.12799H415.916ZM415.916 19.816V18.816H411.644V19.816V20.816H415.916V19.816ZM411.644 19.816H410.644V23.944H411.644H412.644V19.816H411.644ZM411.644 23.944V22.944H398.924V23.944V24.944H411.644V23.944ZM398.924 23.944H397.924V32.152H398.924H399.924V23.944H398.924ZM398.924 32.152V31.152H392.828V32.152V33.152H398.924V32.152ZM398.924 17.368V18.368H409.772V17.368V16.368H398.924V17.368ZM409.772 17.368H410.772V7.57599H409.772H408.772V17.368H409.772ZM409.772 7.57599V6.57599H398.924V7.57599V8.57599H409.772V7.57599ZM398.924 7.57599H397.924V17.368H398.924H399.924V7.57599H398.924ZM425.974 32.152H424.974V33.152H425.974V32.152ZM425.974 28.072H426.974V27.072H425.974V28.072ZM421.75 28.072H420.75V29.072H421.75V28.072ZM421.75 5.12799V4.12799H420.75V5.12799H421.75ZM425.974 5.12799V6.12799H426.974V5.12799H425.974ZM425.974 0.999992V-7.62939e-06H424.974V0.999992H425.974ZM440.566 0.999992H441.566V-7.62939e-06H440.566V0.999992ZM440.566 5.12799H439.566V6.12799H440.566V5.12799ZM444.838 5.12799H445.838V4.12799H444.838V5.12799ZM444.838 11.656V12.656H445.838V11.656H444.838ZM438.694 11.656H437.694V12.656H438.694V11.656ZM438.694 7.57599H439.694V6.57599H438.694V7.57599ZM427.846 7.57599V6.57599H426.846V7.57599H427.846ZM427.846 13.336H426.846V14.336H427.846V13.336ZM436.342 13.336H437.342V12.336H436.342V13.336ZM436.342 19.816V20.816H437.342V19.816H436.342ZM427.846 19.816V18.816H426.846V19.816H427.846ZM427.846 25.624H426.846V26.624H427.846V25.624ZM438.694 25.624V26.624H439.694V25.624H438.694ZM438.694 21.496V20.496H437.694V21.496H438.694ZM444.838 21.496H445.838V20.496H444.838V21.496ZM444.838 28.072V29.072H445.838V28.072H444.838ZM440.566 28.072V27.072H439.566V28.072H440.566ZM440.566 32.152V33.152H441.566V32.152H440.566ZM425.974 32.152H426.974V28.072H425.974H424.974V32.152H425.974ZM425.974 28.072V27.072H421.75V28.072V29.072H425.974V28.072ZM421.75 28.072H422.75V5.12799H421.75H420.75V28.072H421.75ZM421.75 5.12799V6.12799H425.974V5.12799V4.12799H421.75V5.12799ZM425.974 5.12799H426.974V0.999992H425.974H424.974V5.12799H425.974ZM425.974 0.999992V1.99999H440.566V0.999992V-7.62939e-06H425.974V0.999992ZM440.566 0.999992H439.566V5.12799H440.566H441.566V0.999992H440.566ZM440.566 5.12799V6.12799H444.838V5.12799V4.12799H440.566V5.12799ZM444.838 5.12799H443.838V11.656H444.838H445.838V5.12799H444.838ZM444.838 11.656V10.656H438.694V11.656V12.656H444.838V11.656ZM438.694 11.656H439.694V7.57599H438.694H437.694V11.656H438.694ZM438.694 7.57599V6.57599H427.846V7.57599V8.57599H438.694V7.57599ZM427.846 7.57599H426.846V13.336H427.846H428.846V7.57599H427.846ZM427.846 13.336V14.336H436.342V13.336V12.336H427.846V13.336ZM436.342 13.336H435.342V19.816H436.342H437.342V13.336H436.342ZM436.342 19.816V18.816H427.846V19.816V20.816H436.342V19.816ZM427.846 19.816H426.846V25.624H427.846H428.846V19.816H427.846ZM427.846 25.624V26.624H438.694V25.624V24.624H427.846V25.624ZM438.694 25.624H439.694V21.496H438.694H437.694V25.624H438.694ZM438.694 21.496V22.496H444.838V21.496V20.496H438.694V21.496ZM444.838 21.496H443.838V28.072H444.838H445.838V21.496H444.838ZM444.838 28.072V27.072H440.566V28.072V29.072H444.838V28.072ZM440.566 28.072H439.566V32.152H440.566H441.566V28.072H440.566ZM440.566 32.152V31.152H425.974V32.152V33.152H440.566V32.152ZM450.672 32.152H449.672V33.152H450.672V32.152ZM450.672 0.999992V-7.62939e-06H449.672V0.999992H450.672ZM456.768 0.999992H457.768V-7.62939e-06H456.768V0.999992ZM456.768 5.12799H455.768V6.12799H456.768V5.12799ZM460.992 5.12799H461.992V4.12799H460.992V5.12799ZM460.992 9.20799H459.992V10.208H460.992V9.20799ZM465.264 9.20799H466.264V8.20799H465.264V9.20799ZM465.264 21.496H464.264V22.496H465.264V21.496ZM467.616 21.496V22.496H468.616V21.496H467.616ZM467.616 0.999992V-7.62939e-06H466.616V0.999992H467.616ZM473.76 0.999992H474.76V-7.62939e-06H473.76V0.999992ZM473.76 32.152V33.152H474.76V32.152H473.76ZM467.616 32.152H466.616V33.152H467.616V32.152ZM467.616 28.072H468.616V27.072H467.616V28.072ZM463.392 28.072H462.392V29.072H463.392V28.072ZM463.392 23.944H464.392V22.944H463.392V23.944ZM459.12 23.944H458.12V24.944H459.12V23.944ZM459.12 11.656H460.12V10.656H459.12V11.656ZM456.768 11.656V10.656H455.768V11.656H456.768ZM456.768 32.152V33.152H457.768V32.152H456.768ZM450.672 32.152H451.672V0.999992H450.672H449.672V32.152H450.672ZM450.672 0.999992V1.99999H456.768V0.999992V-7.62939e-06H450.672V0.999992ZM456.768 0.999992H455.768V5.12799H456.768H457.768V0.999992H456.768ZM456.768 5.12799V6.12799H460.992V5.12799V4.12799H456.768V5.12799ZM460.992 5.12799H459.992V9.20799H460.992H461.992V5.12799H460.992ZM460.992 9.20799V10.208H465.264V9.20799V8.20799H460.992V9.20799ZM465.264 9.20799H464.264V21.496H465.264H466.264V9.20799H465.264ZM465.264 21.496V22.496H467.616V21.496V20.496H465.264V21.496ZM467.616 21.496H468.616V0.999992H467.616H466.616V21.496H467.616ZM467.616 0.999992V1.99999H473.76V0.999992V-7.62939e-06H467.616V0.999992ZM473.76 0.999992H472.76V32.152H473.76H474.76V0.999992H473.76ZM473.76 32.152V31.152H467.616V32.152V33.152H473.76V32.152ZM467.616 32.152H468.616V28.072H467.616H466.616V32.152H467.616ZM467.616 28.072V27.072H463.392V28.072V29.072H467.616V28.072ZM463.392 28.072H464.392V23.944H463.392H462.392V28.072H463.392ZM463.392 23.944V22.944H459.12V23.944V24.944H463.392V23.944ZM459.12 23.944H460.12V11.656H459.12H458.12V23.944H459.12ZM459.12 11.656V10.656H456.768V11.656V12.656H459.12V11.656ZM456.768 11.656H455.768V32.152H456.768H457.768V11.656H456.768ZM456.768 32.152V31.152H450.672V32.152V33.152H456.768V32.152ZM489.203 32.152H488.203V33.152H489.203V32.152ZM489.203 0.999992V-7.62939e-06H488.203V0.999992H489.203ZM495.299 0.999992H496.299V-7.62939e-06H495.299V0.999992ZM495.299 5.12799H494.299V6.12799H495.299V5.12799ZM499.523 5.12799H500.523V4.12799H499.523V5.12799ZM499.523 9.20799H498.523V10.208H499.523V9.20799ZM503.795 9.20799H504.795V8.20799H503.795V9.20799ZM503.795 21.496H502.795V22.496H503.795V21.496ZM506.147 21.496V22.496H507.147V21.496H506.147ZM506.147 0.999992V-7.62939e-06H505.147V0.999992H506.147ZM512.291 0.999992H513.291V-7.62939e-06H512.291V0.999992ZM512.291 32.152V33.152H513.291V32.152H512.291ZM506.147 32.152H505.147V33.152H506.147V32.152ZM506.147 28.072H507.147V27.072H506.147V28.072ZM501.923 28.072H500.923V29.072H501.923V28.072ZM501.923 23.944H502.923V22.944H501.923V23.944ZM497.651 23.944H496.651V24.944H497.651V23.944ZM497.651 11.656H498.651V10.656H497.651V11.656ZM495.299 11.656V10.656H494.299V11.656H495.299ZM495.299 32.152V33.152H496.299V32.152H495.299ZM489.203 32.152H490.203V0.999992H489.203H488.203V32.152H489.203ZM489.203 0.999992V1.99999H495.299V0.999992V-7.62939e-06H489.203V0.999992ZM495.299 0.999992H494.299V5.12799H495.299H496.299V0.999992H495.299ZM495.299 5.12799V6.12799H499.523V5.12799V4.12799H495.299V5.12799ZM499.523 5.12799H498.523V9.20799H499.523H500.523V5.12799H499.523ZM499.523 9.20799V10.208H503.795V9.20799V8.20799H499.523V9.20799ZM503.795 9.20799H502.795V21.496H503.795H504.795V9.20799H503.795ZM503.795 21.496V22.496H506.147V21.496V20.496H503.795V21.496ZM506.147 21.496H507.147V0.999992H506.147H505.147V21.496H506.147ZM506.147 0.999992V1.99999H512.291V0.999992V-7.62939e-06H506.147V0.999992ZM512.291 0.999992H511.291V32.152H512.291H513.291V0.999992H512.291ZM512.291 32.152V31.152H506.147V32.152V33.152H512.291V32.152ZM506.147 32.152H507.147V28.072H506.147H505.147V32.152H506.147ZM506.147 28.072V27.072H501.923V28.072V29.072H506.147V28.072ZM501.923 28.072H502.923V23.944H501.923H500.923V28.072H501.923ZM501.923 23.944V22.944H497.651V23.944V24.944H501.923V23.944ZM497.651 23.944H498.651V11.656H497.651H496.651V23.944H497.651ZM497.651 11.656V10.656H495.299V11.656V12.656H497.651V11.656ZM495.299 11.656H494.299V32.152H495.299H496.299V11.656H495.299ZM495.299 32.152V31.152H489.203V32.152V33.152H495.299V32.152ZM522.349 32.152H521.349V33.152H522.349V32.152ZM522.349 28.072H523.349V27.072H522.349V28.072ZM518.125 28.072H517.125V29.072H518.125V28.072ZM518.125 5.12799V4.12799H517.125V5.12799H518.125ZM522.349 5.12799V6.12799H523.349V5.12799H522.349ZM522.349 0.999992V-7.62939e-06H521.349V0.999992H522.349ZM536.941 0.999992H537.941V-7.62939e-06H536.941V0.999992ZM536.941 5.12799H535.941V6.12799H536.941V5.12799ZM541.213 5.12799H542.213V4.12799H541.213V5.12799ZM541.213 28.072V29.072H542.213V28.072H541.213ZM536.941 28.072V27.072H535.941V28.072H536.941ZM536.941 32.152V33.152H537.941V32.152H536.941ZM524.221 25.624H523.221V26.624H524.221V25.624ZM535.069 25.624V26.624H536.069V25.624H535.069ZM535.069 7.57599H536.069V6.57599H535.069V7.57599ZM524.221 7.57599V6.57599H523.221V7.57599H524.221ZM522.349 32.152H523.349V28.072H522.349H521.349V32.152H522.349ZM522.349 28.072V27.072H518.125V28.072V29.072H522.349V28.072ZM518.125 28.072H519.125V5.12799H518.125H517.125V28.072H518.125ZM518.125 5.12799V6.12799H522.349V5.12799V4.12799H518.125V5.12799ZM522.349 5.12799H523.349V0.999992H522.349H521.349V5.12799H522.349ZM522.349 0.999992V1.99999H536.941V0.999992V-7.62939e-06H522.349V0.999992ZM536.941 0.999992H535.941V5.12799H536.941H537.941V0.999992H536.941ZM536.941 5.12799V6.12799H541.213V5.12799V4.12799H536.941V5.12799ZM541.213 5.12799H540.213V28.072H541.213H542.213V5.12799H541.213ZM541.213 28.072V27.072H536.941V28.072V29.072H541.213V28.072ZM536.941 28.072H535.941V32.152H536.941H537.941V28.072H536.941ZM536.941 32.152V31.152H522.349V32.152V33.152H536.941V32.152ZM524.221 25.624V26.624H535.069V25.624V24.624H524.221V25.624ZM535.069 25.624H536.069V7.57599H535.069H534.069V25.624H535.069ZM535.069 7.57599V6.57599H524.221V7.57599V8.57599H535.069V7.57599ZM524.221 7.57599H523.221V25.624H524.221H525.221V7.57599H524.221ZM551.271 32.152H550.271V33.152H551.271V32.152ZM551.271 28.072H552.271V27.072H551.271V28.072ZM547.047 28.072H546.047V29.072H547.047V28.072ZM547.047 0.999992V-7.62939e-06H546.047V0.999992H547.047ZM553.143 0.999992H554.143V-7.62939e-06H553.143V0.999992ZM553.143 25.624H552.143V26.624H553.143V25.624ZM555.495 25.624V26.624H556.495V25.624H555.495ZM555.495 17.368V16.368H554.495V17.368H555.495ZM559.767 17.368V18.368H560.767V17.368H559.767ZM559.767 5.12799V4.12799H558.767V5.12799H559.767ZM565.863 5.12799H566.863V4.12799H565.863V5.12799ZM565.863 17.368H564.863V18.368H565.863V17.368ZM570.135 17.368H571.135V16.368H570.135V17.368ZM570.135 25.624H569.135V26.624H570.135V25.624ZM572.535 25.624V26.624H573.535V25.624H572.535ZM572.535 0.999992V-7.62939e-06H571.535V0.999992H572.535ZM578.583 0.999992H579.583V-7.62939e-06H578.583V0.999992ZM578.583 28.072V29.072H579.583V28.072H578.583ZM574.407 28.072V27.072H573.407V28.072H574.407ZM574.407 32.152V33.152H575.407V32.152H574.407ZM568.263 32.152H567.263V33.152H568.263V32.152ZM568.263 28.072H569.263V27.072H568.263V28.072ZM563.991 28.072H562.991V29.072H563.991V28.072ZM563.991 19.816H564.991V18.816H563.991V19.816ZM561.639 19.816V18.816H560.639V19.816H561.639ZM561.639 28.072V29.072H562.639V28.072H561.639ZM557.367 28.072V27.072H556.367V28.072H557.367ZM557.367 32.152V33.152H558.367V32.152H557.367ZM551.271 32.152H552.271V28.072H551.271H550.271V32.152H551.271ZM551.271 28.072V27.072H547.047V28.072V29.072H551.271V28.072ZM547.047 28.072H548.047V0.999992H547.047H546.047V28.072H547.047ZM547.047 0.999992V1.99999H553.143V0.999992V-7.62939e-06H547.047V0.999992ZM553.143 0.999992H552.143V25.624H553.143H554.143V0.999992H553.143ZM553.143 25.624V26.624H555.495V25.624V24.624H553.143V25.624ZM555.495 25.624H556.495V17.368H555.495H554.495V25.624H555.495ZM555.495 17.368V18.368H559.767V17.368V16.368H555.495V17.368ZM559.767 17.368H560.767V5.12799H559.767H558.767V17.368H559.767ZM559.767 5.12799V6.12799H565.863V5.12799V4.12799H559.767V5.12799ZM565.863 5.12799H564.863V17.368H565.863H566.863V5.12799H565.863ZM565.863 17.368V18.368H570.135V17.368V16.368H565.863V17.368ZM570.135 17.368H569.135V25.624H570.135H571.135V17.368H570.135ZM570.135 25.624V26.624H572.535V25.624V24.624H570.135V25.624ZM572.535 25.624H573.535V0.999992H572.535H571.535V25.624H572.535ZM572.535 0.999992V1.99999H578.583V0.999992V-7.62939e-06H572.535V0.999992ZM578.583 0.999992H577.583V28.072H578.583H579.583V0.999992H578.583ZM578.583 28.072V27.072H574.407V28.072V29.072H578.583V28.072ZM574.407 28.072H573.407V32.152H574.407H575.407V28.072H574.407ZM574.407 32.152V31.152H568.263V32.152V33.152H574.407V32.152ZM568.263 32.152H569.263V28.072H568.263H567.263V32.152H568.263ZM568.263 28.072V27.072H563.991V28.072V29.072H568.263V28.072ZM563.991 28.072H564.991V19.816H563.991H562.991V28.072H563.991ZM563.991 19.816V18.816H561.639V19.816V20.816H563.991V19.816ZM561.639 19.816H560.639V28.072H561.639H562.639V19.816H561.639ZM561.639 28.072V27.072H557.367V28.072V29.072H561.639V28.072ZM557.367 28.072H556.367V32.152H557.367H558.367V28.072H557.367ZM557.367 32.152V31.152H551.271V32.152V33.152H557.367V32.152Z" fill="#9A1318" mask="url(#path-1-outside-1_492_33)"/>
</svg>
